# xmcd
#
# Track frame offsets: 
#        300
#        21457
#        39610
#        60825
#        80832
#        97617
#        116835
#        134880
#        150092
#        171825
#
# Disc length: 2589 seconds
#
# Revision: 2
# Processed by: cddbd v1.5.2PL0 Copyright (c) Steve Scherf et al.
# Submitted via: ExactAudioCopy v1.0b3
#
DISCID=7d0a190a
DTITLE=eva cassidy - songbird
DYEAR=1900
DGENRE=
TTITLE0=songbird
TTITLE1=Unknown Title
TTITLE2=Unknown Title
TTITLE3=Unknown Title
TTITLE4=Unknown Title
TTITLE5=Unknown Title
TTITLE6=Unknown Title
TTITLE7=Unknown Title
TTITLE8=Unknown Title
TTITLE9=Unknown Title
EXTD=
EXTT0=
EXTT1=
EXTT2=
EXTT3=
EXTT4=
EXTT5=
EXTT6=
EXTT7=
EXTT8=
EXTT9=
PLAYORDER=
